<svg width="38" height="18" xmlns="http://www.w3.org/2000/svg">
 <!-- Created with Method Draw - http://github.com/duopixel/Method-Draw/ -->
 <g>
  <title>background</title>
  <rect fill="#fff" id="canvas_background" height="20" width="40" y="-1" x="-1"/>
 </g>
 <g>
  <title>Layer 1</title>
  <path stroke="#ffffff" id="svg_2" d="m4.651348,13.41826c-0.107718,-0.333227 -0.117798,-0.690674 -0.117798,-0.690674c0,0 -1.35786,-1.110137 -2.02461,-1.739288c-0.562053,-0.530795 -1.494873,-2.052121 -1.494873,-2.052121c0,0 -0.049595,-0.384482 0.037438,-0.395255c0.141167,-0.017063 0.873017,0.582893 1.587215,0.933162c0.735653,0.360833 1.579818,0.598159 1.579818,0.598159l0.923335,0c0,0 -0.758403,-1.872154 0.214457,-1.626795c0.351493,0.027847 0.545743,0.736088 1.081115,0.813973c0.627305,-0.1448 0.936203,-1.84274 0.936203,-1.84274c0,0 -0.190773,-0.316143 -0.182187,-0.616351c0.006918,-0.198488 0.214865,-0.425052 0.214865,-0.425052c0,0 -0.443543,0.069392 -0.747588,-0.022444c-0.273992,-0.08286 -0.692568,-0.405074 -0.80339,-0.643288c-0.137165,-0.294871 -0.101582,-0.621096 -0.247287,-0.808559c-0.014455,-0.147112 0.18718,-0.19726 0.294268,-0.128219c0.403118,0.259923 0.937382,0.287573 1.052683,0.340778c0.482452,0.222674 1.296143,0.253732 1.414793,0.209118c-1.067768,-1.249118 0.286895,-1.50845 0.475638,-1.534926c0.236203,0.241195 0.59213,0.531167 0.694167,0.794641c0.13524,0.16034 0.124238,-0.067584 0.124238,-0.067584c0,0 0.006918,-0.672263 0.315245,-1.175671c0.071073,-0.117436 0.46396,-0.492384 0.725888,-0.525195c0.094955,-0.01189 0.29631,-0.038685 0.510557,-0.219353c0.547388,-0.461622 2.041001,-0.384417 2.041001,-0.384417c0,0 0.120902,0.052537 0.346967,0.051638c0.199593,-0.001107 3.711808,-0.195759 5.148184,0.289436c0.965487,0.326126 2.692328,0.228592 4.772378,-0.329392c0.65653,-0.17611 2.552748,-0.221841 2.552748,-0.221841c0,0 0.717162,0.037359 1.299247,0.222181c0.907492,0.288143 2.63564,0.176592 3.694658,0.282126c0.408718,0.040866 1.19126,0.400636 1.838783,0.736471c2.035833,1.055825 3.222251,3.42022 3.07881,4.225513c-0.279557,1.56948 -1.944635,4.258094 -2.680218,5.440297c-0.297593,0.47828 -0.450835,1.204504 -0.385712,1.756724c0.01897,0.160822 -0.225283,0.563058 -0.68845,0.837271c-0.652738,0.386466 -0.16072,0.953162 -0.10038,1.213622c0.060083,0.259781 0.040052,0.592997 -0.13713,0.667102c-0.176447,0.073633 -2.698383,0.488285 -2.772361,-0.064449c-0.369343,-0.624033 1.444275,-1.57188 1.2369,-2.673546c-0.593448,-0.732976 -0.731278,-2.365874 -0.82628,-2.616494c-0.099365,-1.127737 -2.043591,0.63897 -3.023953,1.000526c-2.817616,1.039134 -5.997203,0.570707 -6.247266,0.48343c-0.34314,0.979507 0.019087,1.463737 0.042455,1.58297c-0.077128,0.667956 0.682173,1.738631 0.851783,2.394872c0.138857,0.525951 -2.233956,0.525951 -2.884688,0.504986c-0.535675,-0.135167 0.269617,-1.119891 0.400855,-1.229776c0.178687,-0.845984 -0.817892,-1.604373 -0.817892,-1.604373c0,0 -0.071178,0.758389 -0.269267,1.395113c0.00826,0.300121 0.325978,0.518225 0.372248,0.785863c0.049128,0.28583 -0.182187,0.323101 -0.182187,0.323101c0,0 -1.819043,0.306433 -2.277321,-0.049622c-0.229845,-0.067759 -0.430197,0.042663 -0.591162,-0.074773c-0.111837,-0.082181 0.07273,-0.55234 0.211283,-0.682356c0.11851,-0.111803 0.909335,-0.135934 0.91546,-1.03577c-0.195953,-1.5984 -1.809465,-2.267562 -1.929643,-2.889327c-0.781492,0.287178 -1.603186,-0.252581 -1.603186,-0.252581c0,0 -0.214853,0.233732 -0.451418,0.277951c-0.189817,0.035036 -0.886153,-0.385052 -1.119347,-0.629808c-0.075262,0.958532 -0.916405,0.702795 -0.916405,0.702795c0,0 -0.297372,0.470948 -0.770012,0.698521c-1.165045,0.560975 -1.378603,0.516362 -1.859526,0.944406c-0.270853,0.241063 -0.746888,-0.115112 -1.06141,-0.004241c-1.138947,0.401501 -1.827058,-0.111529 -1.772738,-1.250466z" stroke-width="1.5" fill="#B8874D"/>
 </g>
</svg>